#tb 0: 32767/982027
#media_type 0: video
#codec_id 0: rawvideo
#dimensions 0: 192x192
#sar 0: 0/1
0,          0,          0,        1,    55296, 0x6a3202a3
0,          1,          1,        1,    55296, 0x2af202eb
0,          2,          2,        1,    55296, 0xa1a40388
0,          3,          3,        1,    55296, 0x61c90426
0,          4,          4,        1,    55296, 0x17720594
0,          5,          5,        1,    55296, 0x49440805
0,          6,          6,        1,    55296, 0x5b2e0d32
0,          7,          7,        1,    55296, 0x5cf691c3
0,          8,          8,        1,    55296, 0x61a5a4c8
0,          9,          9,        1,    55296, 0x75a22a75
0,         10,         10,        1,    55296, 0xd55099af
0,         11,         11,        1,    55296, 0x48778bb6
0,         12,         12,        1,    55296, 0xe76b7df7
0,         13,         13,        1,    55296, 0x5a049f33
0,         14,         14,        1,    55296, 0xc83d9b90
0,         15,         15,        1,    55296, 0x464d77d6
0,         16,         16,        1,    55296, 0x725d7fa2
0,         17,         17,        1,    55296, 0xc30494d5
0,         18,         18,        1,    55296, 0x5687839f
0,         19,         19,        1,    55296, 0x38be8df5
0,         20,         20,        1,    55296, 0x62afa0ca
0,         21,         21,        1,    55296, 0x683ab733
0,         22,         22,        1,    55296, 0xccbedc72
0,         23,         23,        1,    55296, 0x43c4abc5
0,         24,         24,        1,    55296, 0xf2f2e3f5
0,         25,         25,        1,    55296, 0x5fb8c813
0,         26,         26,        1,    55296, 0x7814d907
0,         27,         27,        1,    55296, 0xbb87e71a
0,         28,         28,        1,    55296, 0x41c6ef34
0,         29,         29,        1,    55296, 0x3f041373
0,         30,         30,        1,    55296, 0x14b62281
0,         31,         31,        1,    55296, 0x9a41fddb
0,         32,         32,        1,    55296, 0x8961f556
0,         33,         33,        1,    55296, 0x98edea61
0,         34,         34,        1,    55296, 0x434ae3dd
0,         35,         35,        1,    55296, 0x0aa4fa23
0,         36,         36,        1,    55296, 0x0b8bc77f
0,         37,         37,        1,    55296, 0x79dfafbc
0,         38,         38,        1,    55296, 0x199ea4da
0,         39,         39,        1,    55296, 0xd270896d
0,         40,         40,        1,    55296, 0xac4ea82b
0,         41,         41,        1,    55296, 0x770b6984
0,         42,         42,        1,    55296, 0x378b4f1a
0,         43,         43,        1,    55296, 0xe8253faf
0,         44,         44,        1,    55296, 0xc8224326
0,         45,         45,        1,    55296, 0x22b33d1b
0,         46,         46,        1,    55296, 0x83c33475
0,         47,         47,        1,    55296, 0xbd2aed59
0,         48,         48,        1,    55296, 0xe058e7e6
0,         49,         49,        1,    55296, 0x575fc611
0,         50,         50,        1,    55296, 0x218196dd
0,         51,         51,        1,    55296, 0x0882998c
0,         52,         52,        1,    55296, 0x380887dd
0,         53,         53,        1,    55296, 0x833f82c8
0,         54,         54,        1,    55296, 0x9db9697b
0,         55,         55,        1,    55296, 0xb8dd5be8
0,         56,         56,        1,    55296, 0x1df1869b
0,         57,         57,        1,    55296, 0xe0bd7399
0,         58,         58,        1,    55296, 0xc2413536
0,         59,         59,        1,    55296, 0x90bb2ebf
0,         60,         60,        1,    55296, 0x6fe72e97
0,         61,         61,        1,    55296, 0x41385f50
0,         62,         62,        1,    55296, 0x360973b0
0,         63,         63,        1,    55296, 0x211d31c4
0,         64,         64,        1,    55296, 0xe40632a9
0,         65,         65,        1,    55296, 0xc4052794
0,         66,         66,        1,    55296, 0x2ff82adf
0,         67,         67,        1,    55296, 0x7d272ac3
0,         68,         68,        1,    55296, 0x37512dcc
0,         69,         69,        1,    55296, 0x66832c7f
0,         70,         70,        1,    55296, 0xbc1046fb
0,         71,         71,        1,    55296, 0xf44d470f
0,         72,         72,        1,    55296, 0x28d85a11
0,         73,         73,        1,    55296, 0xbdb153c7
0,         74,         74,        1,    55296, 0x87093d2d
0,         75,         75,        1,    55296, 0x132c5459
0,         76,         76,        1,    55296, 0x293e3cff
0,         77,         77,        1,    55296, 0x1a2c61a2
0,         78,         78,        1,    55296, 0xc9756c48
0,         79,         79,        1,    55296, 0xd90f5a89
0,         80,         80,        1,    55296, 0x83eb6053
0,         81,         81,        1,    55296, 0x713864df
0,         82,         82,        1,    55296, 0xf0ef6273
0,         83,         83,        1,    55296, 0x24875dc4
0,         84,         84,        1,    55296, 0x094a696e
0,         85,         85,        1,    55296, 0xe2d95761
0,         86,         86,        1,    55296, 0x33265995
0,         87,         87,        1,    55296, 0xc24b5bb9
0,         88,         88,        1,    55296, 0xc130ad3d
0,         89,         89,        1,    55296, 0x42389d02
0,         90,         90,        1,    55296, 0x372b7dbd
0,         91,         91,        1,    55296, 0x8645860d
0,         92,         92,        1,    55296, 0x218581dc
0,         93,         93,        1,    55296, 0xaea2b4e7
0,         94,         94,        1,    55296, 0x3b14b7fa
0,         95,         95,        1,    55296, 0x7b7d93f7
0,         96,         96,        1,    55296, 0x61bc9b27
0,         97,         97,        1,    55296, 0x1e4baa30
0,         98,         98,        1,    55296, 0x2a6dadac
0,         99,         99,        1,    55296, 0x0d0aa8fb
0,        100,        100,        1,    55296, 0x3c6aa33a
0,        101,        101,        1,    55296, 0xbd4fa809
0,        102,        102,        1,    55296, 0x55edd382
0,        103,        103,        1,    55296, 0x6a9cc4df
0,        104,        104,        1,    55296, 0x49a5ed7f
0,        105,        105,        1,    55296, 0x0c33f0b3
0,        106,        106,        1,    55296, 0xd5e4d037
0,        107,        107,        1,    55296, 0x2ddfc89a
0,        108,        108,        1,    55296, 0xb39ed6c6
0,        109,        109,        1,    55296, 0x8fe606e2
0,        110,        110,        1,    55296, 0x10ce18ec
0,        111,        111,        1,    55296, 0xe2110705
0,        112,        112,        1,    55296, 0x1a00ef28
0,        113,        113,        1,    55296, 0x9c90fa21
0,        114,        114,        1,    55296, 0xfafffdbe
0,        115,        115,        1,    55296, 0x741e2bc8
0,        116,        116,        1,    55296, 0xf5b00ece
0,        117,        117,        1,    55296, 0x3b2e224d
0,        118,        118,        1,    55296, 0x29e81d73
0,        119,        119,        1,    55296, 0xe3412580
0,        120,        120,        1,    55296, 0x3c2865dc
0,        121,        121,        1,    55296, 0xd4b5553b
0,        122,        122,        1,    55296, 0x1ad8fa27
0,        123,        123,        1,    55296, 0xc1533ef5
0,        124,        124,        1,    55296, 0xf671f85d
0,        125,        125,        1,    55296, 0xae2670e0
0,        126,        126,        1,    55296, 0xe4390cd0
0,        127,        127,        1,    55296, 0x5cd50784
0,        128,        128,        1,    55296, 0x05880500
0,        129,        129,        1,    55296, 0x6d2d0420
0,        130,        130,        1,    55296, 0xfa780393
0,        131,        131,        1,    55296, 0x2daf0315
0,        132,        132,        1,    55296, 0x982f02b3
